<?xml version="1.0" encoding="utf-8"?>
<!-- Generated by IcoMoon.io -->
<!DOCTYPE svg PUBLIC "-//W3C//DTD SVG 1.1//EN" "http://www.w3.org/Graphics/SVG/1.1/DTD/svg11.dtd">
<svg version="1.1" xmlns="http://www.w3.org/2000/svg" xmlns:xlink="http://www.w3.org/1999/xlink" width="85" height="85" viewBox="0 0 85 85">
<path d="M46.324 61.546c0.023 2.338-1.838 4.233-4.176 4.256s-4.233-1.838-4.256-4.176c-0.023-2.338 1.838-4.233 4.176-4.256 2.29 0.011 4.186 1.872 4.256 4.176z" fill="#444444"></path>
<path d="M42.692 32.387c-7.641 0.088-14.436 3.069-18.572 7.582l3.484 5.296c3.020-4.075 8.612-6.842 15.092-6.959 6.013-0.071 11.292 2.236 14.495 5.734l3.522-5.074c-4.155-4.034-10.717-6.64-18.020-6.578z" fill="#444444"></path>
<path d="M42.196 45.723c-4.385 0.053-8.333 1.722-11.331 4.426l2.958 4.457c2.246-1.955 5.194-3.126 8.451-3.161 3.047-0.028 5.836 0.983 8.049 2.689l3.075-4.4c-3.076-2.519-6.945-4.046-11.201-4.012z" fill="#444444"></path>
<path d="M42.499 19.185c-10.060 0.097-19.066 4.081-25.245 10.333l3.329 4.978c4.529-5.363 12.643-8.997 21.865-9.069 9.141-0.085 17.195 3.314 21.902 8.524l3.522-5.074c-6.36-6.031-15.393-9.803-25.372-9.692z" fill="#444444"></path>
</svg>
