<?xml version="1.0" encoding="utf-8"?>
<!-- Generated by IcoMoon.io -->
<!DOCTYPE svg PUBLIC "-//W3C//DTD SVG 1.1//EN" "http://www.w3.org/Graphics/SVG/1.1/DTD/svg11.dtd">
<svg version="1.1" xmlns="http://www.w3.org/2000/svg" xmlns:xlink="http://www.w3.org/1999/xlink" width="85" height="85" viewBox="0 0 85 85">
<path d="M49.433 54.155c0 3.773-3.059 6.832-6.832 6.832s-6.832-3.059-6.832-6.832c0-3.773 3.059-6.832 6.832-6.832s6.832 3.059 6.832 6.832z" fill="#444444"></path>
<path d="M44.308 55.963l-3.416-3.517 19.391-20.697 3.416 3.617z" fill="#444444"></path>
<path d="M77.264 53.653c-2.713-16.779-17.181-29.64-34.663-29.64 0 0 0 0 0 0s0 0 0 0 0 0 0 0 0 0 0 0c-17.482 0-32.051 12.86-34.663 29.64 0 0.1 0 0.301 0 0.402 0 1.407 1.105 2.411 2.411 2.411h11.554c1.407 0 2.411-1.105 2.411-2.411 0-1.407-1.105-2.411-2.411-2.411h-8.239c1.206-4.622 3.517-8.842 6.732-12.358l3.316 3.316c0.904 0.904 2.512 0.904 3.416 0s0.904-2.512 0-3.416l-3.215-3.215c4.521-3.718 10.248-6.028 16.377-6.531 0 0 0 0 0 0v3.416c0 1.306 1.105 2.411 2.411 2.411s2.411-1.105 2.411-2.411v-3.416c0 0 0 0 0 0 12.66 1.005 23.209 10.047 26.324 22.104h-8.239c-1.407 0-2.411 1.105-2.411 2.411 0 1.407 1.105 2.411 2.411 2.411h11.554c1.407 0 2.411-1.105 2.411-2.411 0.1 0 0.1-0.201 0.1-0.301z" fill="#444444"></path>
</svg>
