<?xml version="1.0" encoding="utf-8"?>
<!-- Generated by IcoMoon.io -->
<!DOCTYPE svg PUBLIC "-//W3C//DTD SVG 1.1//EN" "http://www.w3.org/Graphics/SVG/1.1/DTD/svg11.dtd">
<svg version="1.1" xmlns="http://www.w3.org/2000/svg" xmlns:xlink="http://www.w3.org/1999/xlink" width="85" height="85" viewBox="0 0 85 85">
<path d="M37.074 66.212c-1.005 0-2.009-0.402-2.713-1.105l-16.478-16.478c-1.507-1.507-1.507-3.918 0-5.426 0.703-0.703 1.708-1.105 2.713-1.105s2.009 0.402 2.713 1.105l13.564 13.564 24.716-36.773 0.1-0.1c0.703-0.703 1.708-1.105 2.713-1.105s2.009 0.402 2.713 1.105c0.703 0.703 1.105 1.708 1.105 2.713s-0.402 1.909-1.005 2.612l-27.329 39.787-0.1 0.1c-0.703 0.703-1.708 1.105-2.713 1.105z" fill="#444444"></path>
</svg>
