<?xml version="1.0" encoding="utf-8"?>
<!-- Generated by IcoMoon.io -->
<!DOCTYPE svg PUBLIC "-//W3C//DTD SVG 1.1//EN" "http://www.w3.org/Graphics/SVG/1.1/DTD/svg11.dtd">
<svg version="1.1" xmlns="http://www.w3.org/2000/svg" xmlns:xlink="http://www.w3.org/1999/xlink" width="85" height="85" viewBox="0 0 85 85">
<path d="M23.209 65.307c-3.617 0-6.531-2.914-6.531-6.531v-15.272c0-3.617 2.914-6.531 6.531-6.531s6.531 2.914 6.531 6.531v15.272c0 3.617-2.914 6.531-6.531 6.531zM23.209 41.395c-1.206 0-2.21 1.005-2.21 2.21v15.272c0 1.206 1.005 2.21 2.21 2.21s2.21-1.005 2.21-2.21v-15.372c0-1.206-1.005-2.11-2.21-2.11z" fill="#444444"></path>
<path d="M42.5 65.307c-3.617 0-6.531-2.914-6.531-6.531v-23.913c0-3.617 2.914-6.531 6.531-6.531s6.531 2.914 6.531 6.531v23.913c0 3.617-2.914 6.531-6.531 6.531zM42.5 32.754c-1.206 0-2.21 1.005-2.21 2.21v23.913c0 1.206 1.005 2.21 2.21 2.21s2.21-1.005 2.21-2.21v-24.013c0-1.206-1.005-2.11-2.21-2.11z" fill="#444444"></path>
<path d="M61.791 65.307c-3.617 0-6.531-2.914-6.531-6.531v-32.553c0-3.617 2.914-6.531 6.531-6.531s6.531 2.914 6.531 6.531v32.654c0 3.517-2.914 6.43-6.531 6.43zM61.791 24.013c-1.206 0-2.21 1.005-2.21 2.21v32.654c0 1.206 1.005 2.21 2.21 2.21s2.21-1.005 2.21-2.21v-32.654c-0.1-1.206-1.005-2.21-2.21-2.21z" fill="#444444"></path>
</svg>
