<?xml version="1.0" encoding="utf-8"?>
<!-- Generated by IcoMoon.io -->
<!DOCTYPE svg PUBLIC "-//W3C//DTD SVG 1.1//EN" "http://www.w3.org/Graphics/SVG/1.1/DTD/svg11.dtd">
<svg version="1.1" xmlns="http://www.w3.org/2000/svg" xmlns:xlink="http://www.w3.org/1999/xlink" width="85" height="85" viewBox="0 0 85 85">
<path d="M53.653 18.587c-8.239 0-14.87 6.631-14.87 14.87 0 1.206 0.201 2.411 0.502 3.617l-22.606 23.008-0.201 6.129 7.435 0.201 3.215-2.612 1.105 1.306 2.813-2.813v-3.918l6.531-5.627 1.306 1.306 2.612-3.918 2.612 1.909 3.014-1.708 0.301-3.316c1.909 0.904 4.019 1.407 6.33 1.407 8.239 0 14.87-6.631 14.87-14.87s-6.732-14.97-14.97-14.97zM57.169 34.965c-2.914 0-5.225-2.311-5.225-5.225s2.311-5.225 5.225-5.225c2.914 0 5.225 2.311 5.225 5.225s-2.311 5.225-5.225 5.225z" fill="#444444"></path>
</svg>
