<?xml version="1.0" encoding="utf-8"?>
<!-- Generated by IcoMoon.io -->
<!DOCTYPE svg PUBLIC "-//W3C//DTD SVG 1.1//EN" "http://www.w3.org/Graphics/SVG/1.1/DTD/svg11.dtd">
<svg version="1.1" xmlns="http://www.w3.org/2000/svg" xmlns:xlink="http://www.w3.org/1999/xlink" width="85" height="85" viewBox="0 0 85 85">
<path d="M42.902 65.609c0-7.234 3.115-12.76 7.937-14.669-2.713-3.517-6.631-5.627-11.153-5.627h-3.115c4.823-2.21 8.239-6.933 8.239-12.559 0-7.636-6.229-13.765-13.966-13.765s-13.966 6.129-13.966 13.765c0 5.526 3.316 10.349 8.239 12.559h-3.115c-9.143 0-15.473 8.339-15.473 20.597l36.371-0.301z" fill="#444444"></path>
<path d="M68.121 51.944h-2.11c3.316-1.507 5.526-4.722 5.526-8.44 0-5.124-4.22-9.344-9.444-9.344s-9.444 4.22-9.444 9.344c0 3.818 2.311 7.033 5.526 8.44h-2.11c-6.129 0-10.449 5.627-10.449 13.765h33.056c0-8.138-4.32-13.765-10.55-13.765z" fill="#444444"></path>
</svg>
