<?xml version="1.0" encoding="utf-8"?>
<!-- Generated by IcoMoon.io -->
<!DOCTYPE svg PUBLIC "-//W3C//DTD SVG 1.1//EN" "http://www.w3.org/Graphics/SVG/1.1/DTD/svg11.dtd">
<svg version="1.1" xmlns="http://www.w3.org/2000/svg" xmlns:xlink="http://www.w3.org/1999/xlink" width="85" height="85" viewBox="0 0 85 85">
<path d="M40.591 56.265h3.918v8.339h-3.918v-8.339z" fill="#444444"></path>
<path d="M26.726 61.288h31.548v3.316h-31.548v-3.316z" fill="#444444"></path>
<path d="M20.597 56.365h43.806c0.603 0 1.206-0.301 1.708-0.703 0.402-0.402 0.703-1.105 0.703-1.708v-31.147c0-0.603-0.301-1.206-0.703-1.708-0.402-0.402-1.005-0.703-1.708-0.703h-43.806c-0.603 0-1.206 0.301-1.708 0.703-0.402 0.402-0.703 1.105-0.703 1.708v31.147c0 0.603 0.301 1.206 0.703 1.708 0.502 0.402 1.105 0.703 1.708 0.703zM23.008 25.219h39.084v26.324h-39.084v-26.324z" fill="#444444"></path>
</svg>
