<?xml version="1.0" encoding="utf-8"?>
<!-- Generated by IcoMoon.io -->
<!DOCTYPE svg PUBLIC "-//W3C//DTD SVG 1.1//EN" "http://www.w3.org/Graphics/SVG/1.1/DTD/svg11.dtd">
<svg version="1.1" xmlns="http://www.w3.org/2000/svg" xmlns:xlink="http://www.w3.org/1999/xlink" width="85" height="85" viewBox="0 0 85 85">
<path d="M73.144 58.576h-56.265v-37.074h-4.923v41.897h61.288v-4.823z" fill="#444444"></path>
<path d="M68.422 24.415c-2.411-0.301-4.622 1.507-4.923 3.918-0.1 1.306 0.301 2.512 1.105 3.416l-6.832 11.454c-0.201-0.1-0.502-0.1-0.703-0.1-1.407-0.1-2.713 0.402-3.617 1.306l-13.664-12.358c0.1-0.402 0.201-0.703 0.201-1.105 0-2.512-2.009-4.421-4.421-4.421-2.512 0-4.421 2.009-4.421 4.421 0 1.407 0.703 2.612 1.708 3.416l-5.928 11.454c-0.402-0.1-0.804-0.201-1.306-0.201-2.512 0-4.421 2.009-4.421 4.421 0 2.512 2.009 4.421 4.421 4.421s4.421-2.009 4.421-4.421c0-1.206-0.502-2.311-1.206-3.014l6.028-11.655c0.201 0 0.502 0.1 0.703 0.1 1.306 0 2.411-0.502 3.215-1.407l13.664 12.258c-0.1 0.201-0.1 0.502-0.201 0.703-0.301 2.411 1.507 4.622 3.918 4.923s4.622-1.507 4.923-3.918c0.1-1.407-0.402-2.713-1.306-3.617l6.732-11.353c0.301 0.1 0.603 0.201 0.904 0.201 2.411 0.301 4.622-1.507 4.923-3.918s-1.407-4.622-3.918-4.923z" fill="#444444"></path>
</svg>
