<?xml version="1.0" encoding="utf-8"?>
<!-- Generated by IcoMoon.io -->
<!DOCTYPE svg PUBLIC "-//W3C//DTD SVG 1.1//EN" "http://www.w3.org/Graphics/SVG/1.1/DTD/svg11.dtd">
<svg version="1.1" xmlns="http://www.w3.org/2000/svg" xmlns:xlink="http://www.w3.org/1999/xlink" width="85" height="85" viewBox="0 0 85 85">
<path d="M64.102 42.299c3.617-3.617 5.124-8.641 4.119-13.664-0.1-0.301-0.301-0.603-0.603-0.703s-0.703 0-0.904 0.201l-0.904 1.005-5.526 5.526-6.028 1.306-5.124-5.124 1.306-6.028 6.33-6.33c0.201-0.201 0.301-0.603 0.201-0.904s-0.402-0.502-0.703-0.603c-4.923-1.005-10.047 0.603-13.664 4.119-4.32 4.32-3.215 12.057-2.612 14.97l-20.898 20.798c-7.134 7.234 1.909 16.277 9.043 8.942l20.898-20.898c3.014 0.603 10.751 1.708 15.071-2.612zM25.118 63.901c-1.105 1.105-2.914 1.105-4.019 0s-1.105-2.914 0-4.019c1.105-1.105 2.914-1.105 4.019 0s1.105 2.914 0 4.019c0 0 0 0 0 0z" fill="#444444"></path>
</svg>
