<?xml version="1.0" encoding="utf-8"?>
<!-- Generated by IcoMoon.io -->
<!DOCTYPE svg PUBLIC "-//W3C//DTD SVG 1.1//EN" "http://www.w3.org/Graphics/SVG/1.1/DTD/svg11.dtd">
<svg version="1.1" xmlns="http://www.w3.org/2000/svg" xmlns:xlink="http://www.w3.org/1999/xlink" width="85" height="85" viewBox="0 0 85 85">
<path d="M45.112 68.422c0-4.22 0-14.267-10.65-14.267h-2.21c3.316-1.507 5.727-4.823 5.727-8.741 0-6.933-4.923-10.449-9.746-10.449-4.923 0-9.746 3.517-9.746 10.449 0 3.918 2.311 7.234 5.727 8.741h-2.21c-10.65 0-10.65 10.047-10.65 14.267h33.759z" fill="#444444"></path>
<path d="M60.786 16.578h-10.55c-7.134 0-12.961 5.627-12.961 12.66 0 6.832 5.426 12.358 12.358 12.66l1.407 9.746c0.201 0.502 0.804 0.904 1.407 0.904 1.005 0 1.507-1.005 1.909-1.507s6.933-9.244 6.933-9.244c6.933-0.301 12.358-5.827 12.358-12.66 0.1-6.933-5.727-12.559-12.86-12.559zM61.188 38.782h-0.804c-0.603 0-0.904 0.301-1.407 0.904s-3.517 4.622-5.325 7.636c0 0-1.105-6.732-1.407-7.636-0.301-0.703-1.005-0.904-1.608-0.904h-0.703c-5.426-0.201-9.545-4.421-9.545-9.645 0-5.325 4.421-9.645 9.947-9.645h10.55c5.426 0 9.947 4.32 9.947 9.645-0.1 5.325-4.32 9.545-9.645 9.645z" fill="#444444"></path>
</svg>
