<?xml version="1.0" encoding="utf-8"?>
<!-- Generated by IcoMoon.io -->
<!DOCTYPE svg PUBLIC "-//W3C//DTD SVG 1.1//EN" "http://www.w3.org/Graphics/SVG/1.1/DTD/svg11.dtd">
<svg version="1.1" xmlns="http://www.w3.org/2000/svg" xmlns:xlink="http://www.w3.org/1999/xlink" width="85" height="85" viewBox="0 0 85 85">
<path d="M44.208 68.422c9.043-0.301 17.683-3.316 17.683-8.741v-34.261c0 0 0 0 0 0s0 0 0 0c0-5.727-9.746-8.741-19.391-8.741s-19.391 3.014-19.391 8.741c0 0 0 0 0 0s0 0 0 0v34.261c0 5.225 8.239 8.239 17.080 8.641l4.019 0.1zM27.128 30.845c3.718 2.11 9.545 3.215 15.372 3.215s11.655-1.105 15.372-3.215v5.928c0 1.708-5.827 4.722-15.372 4.722s-15.372-3.014-15.372-4.722v-5.928zM27.128 42.299c3.718 2.11 9.545 3.215 15.372 3.215s11.655-1.105 15.372-3.215v5.928c0 1.708-5.827 4.722-15.372 4.722s-15.372-3.014-15.372-4.722v-5.928zM57.872 25.319c0 1.708-5.827 4.722-15.372 4.722s-15.372-3.014-15.372-4.722c0-1.708 5.827-4.722 15.372-4.722s15.372 3.014 15.372 4.722zM27.128 59.681v-5.928c3.718 2.11 9.545 3.215 15.372 3.215s11.655-1.105 15.372-3.215v5.928c0 1.608-5.727 4.622-15.071 4.722-0.201-0.1-0.904-0.1-1.105 0-9.043-0.201-14.569-3.115-14.569-4.722z" fill="#444444"></path>
</svg>
