<?xml version="1.0" encoding="utf-8"?>
<!-- Generated by IcoMoon.io -->
<!DOCTYPE svg PUBLIC "-//W3C//DTD SVG 1.1//EN" "http://www.w3.org/Graphics/SVG/1.1/DTD/svg11.dtd">
<svg version="1.1" xmlns="http://www.w3.org/2000/svg" xmlns:xlink="http://www.w3.org/1999/xlink" width="85" height="85" viewBox="0 0 85 85">
<path d="M52.648 19.391h-20.295c-1.105 0-2.009 0.904-2.009 2.009v42.098c0 1.105 0.904 2.009 2.009 2.009h20.295c1.105 0 2.009-0.904 2.009-2.009v-42.098c0-1.105-0.904-2.009-2.009-2.009zM36.17 61.188c-1.005 0-1.808-0.804-1.808-1.808s0.804-1.808 1.808-1.808c1.005 0 1.808 0.804 1.808 1.808s-0.804 1.808-1.808 1.808zM36.17 54.858c-1.005 0-1.808-0.804-1.808-1.808s0.804-1.808 1.808-1.808c1.005 0 1.808 0.804 1.808 1.808s-0.804 1.808-1.808 1.808zM36.17 48.528c-1.005 0-1.808-0.804-1.808-1.808s0.804-1.808 1.808-1.808c1.005 0 1.808 0.804 1.808 1.808 0 0.904-0.804 1.808-1.808 1.808zM34.864 25.118c-1.005 0-1.808-0.804-1.808-1.808s0.804-1.808 1.808-1.808c1.005 0 1.808 0.804 1.808 1.808 0.1 1.005-0.804 1.808-1.808 1.808zM42.5 61.188c-1.005 0-1.808-0.804-1.808-1.808s0.804-1.808 1.808-1.808c1.005 0 1.808 0.804 1.808 1.808 0.1 1.005-0.804 1.808-1.808 1.808zM42.5 54.858c-1.005 0-1.808-0.804-1.808-1.808s0.804-1.808 1.808-1.808c1.005 0 1.808 0.804 1.808 1.808 0.1 1.005-0.804 1.808-1.808 1.808zM42.5 48.528c-1.005 0-1.808-0.804-1.808-1.808s0.804-1.808 1.808-1.808c1.005 0 1.808 0.804 1.808 1.808 0.1 0.904-0.804 1.808-1.808 1.808zM48.93 61.188c-1.005 0-1.808-0.804-1.808-1.808s0.804-1.808 1.808-1.808c1.005 0 1.808 0.804 1.808 1.808s-0.804 1.808-1.808 1.808zM48.93 54.858c-1.005 0-1.808-0.804-1.808-1.808s0.804-1.808 1.808-1.808c1.005 0 1.808 0.804 1.808 1.808s-0.804 1.808-1.808 1.808zM48.93 48.528c-1.005 0-1.808-0.804-1.808-1.808s0.804-1.808 1.808-1.808c1.005 0 1.808 0.804 1.808 1.808 0 0.904-0.804 1.808-1.808 1.808zM48.83 33.457c0 3.517-2.813 6.33-6.33 6.33s-6.33-2.813-6.33-6.33 2.813-6.33 6.33-6.33c3.517 0 6.33 2.813 6.33 6.33z" fill="#444444"></path>
</svg>
