<?xml version="1.0" encoding="utf-8"?>
<!-- Generated by IcoMoon.io -->
<!DOCTYPE svg PUBLIC "-//W3C//DTD SVG 1.1//EN" "http://www.w3.org/Graphics/SVG/1.1/DTD/svg11.dtd">
<svg version="1.1" xmlns="http://www.w3.org/2000/svg" xmlns:xlink="http://www.w3.org/1999/xlink" width="85" height="85" viewBox="0 0 85 85">
<path d="M30.745 37.878h23.511c0.301 0 0.703-0.1 0.904-0.402 0.201-0.201 0.402-0.603 0.402-0.904v-16.679c0-0.301-0.1-0.703-0.402-0.904-0.201-0.201-0.603-0.402-0.904-0.402h-23.511c-0.301 0-0.703 0.1-0.904 0.402-0.201 0.201-0.402 0.603-0.402 0.904v16.679c0 0.301 0.1 0.703 0.402 0.904 0.201 0.201 0.603 0.402 0.904 0.402zM32.051 21.099h20.999v14.167h-20.999v-14.167zM30.041 54.657h-12.258c-0.301 0-0.703 0.1-0.904 0.402-0.201 0.201-0.402 0.603-0.402 0.904v9.244c0 0.301 0.1 0.703 0.402 0.904 0.201 0.201 0.603 0.402 0.904 0.402h12.258c0.301 0 0.703-0.1 0.904-0.402 0.201-0.201 0.402-0.603 0.402-0.904v-9.244c0-0.301-0.1-0.703-0.402-0.904-0.201-0.301-0.603-0.402-0.904-0.402zM28.735 63.901h-9.746v-6.631h9.746v6.631zM48.629 54.657h-12.258c-0.301 0-0.703 0.1-0.904 0.402-0.201 0.201-0.402 0.603-0.402 0.904v9.244c0 0.301 0.1 0.703 0.402 0.904 0.201 0.201 0.603 0.402 0.904 0.402h12.258c0.301 0 0.703-0.1 0.904-0.402 0.201-0.201 0.402-0.603 0.402-0.904v-9.244c0-0.301-0.1-0.703-0.402-0.904-0.201-0.301-0.603-0.402-0.904-0.402zM37.677 63.901v-6.631h9.746v6.631h-9.746zM68.121 55.059c-0.201-0.201-0.603-0.402-0.904-0.402h-12.258c-0.301 0-0.703 0.1-0.904 0.402-0.201 0.201-0.402 0.603-0.402 0.904v9.244c0 0.301 0.1 0.703 0.402 0.904 0.201 0.201 0.603 0.402 0.904 0.402h12.258c0.301 0 0.703-0.1 0.904-0.402 0.201-0.201 0.402-0.603 0.402-0.904v-9.244c0-0.402-0.1-0.703-0.402-0.904zM66.011 63.901h-9.746v-6.631h9.746v6.631zM20.195 51.643c0.703 0 1.306-0.603 1.306-1.306v-2.512h19.391v2.713c0 0.703 0.603 1.306 1.306 1.306s1.306-0.603 1.306-1.306v-2.713h19.391v2.512c0 0.703 0.603 1.306 1.306 1.306s1.306-0.603 1.306-1.306v-3.718c0-0.703-0.603-1.306-1.306-1.306h-20.697v-3.115c0 0 0 0 0 0v-0.603c0-0.703-0.603-1.306-1.306-1.306s-1.306 0.603-1.306 1.306v3.718h-20.697c-0.703 0-1.306 0.603-1.306 1.306v3.718c0.1 0.703 0.603 1.306 1.306 1.306z" fill="#444444"></path>
</svg>
