<?xml version="1.0" encoding="utf-8"?>
<!-- Generated by IcoMoon.io -->
<!DOCTYPE svg PUBLIC "-//W3C//DTD SVG 1.1//EN" "http://www.w3.org/Graphics/SVG/1.1/DTD/svg11.dtd">
<svg version="1.1" xmlns="http://www.w3.org/2000/svg" xmlns:xlink="http://www.w3.org/1999/xlink" width="85" height="85" viewBox="0 0 85 85">
<path d="M28.132 35.065h-7.033c-2.311 0-4.22 1.909-4.22 4.22v6.33c0 2.311 1.909 4.22 4.22 4.22h7.033l12.057 13.463v-41.596l-12.057 13.363z" fill="#444444"></path>
<path d="M59.47 42.632c-0.025-5.047-1.983-9.502-4.985-12.217l-3.477 2.332c2.672 1.95 4.544 5.683 4.577 9.939 0.040 3.966-1.466 7.463-3.773 9.533l3.36 2.316c2.64-2.806 4.316-7.066 4.297-11.903z" fill="#444444"></path>
<path d="M50.688 42.319c-0.056-2.885-1.119-5.481-2.872-7.443l-2.956 1.961c1.288 1.509 2.088 3.436 2.071 5.517-0.003 2-0.642 3.809-1.725 5.294l2.915 1.991c1.584-1.984 2.555-4.529 2.567-7.319z" fill="#444444"></path>
<path d="M68.159 42.512c-0.090-6.641-2.674-12.578-6.828-16.612l-3.287 2.197c3.542 2.972 5.931 8.334 5.954 14.381 0.071 6.013-2.202 11.34-5.64 14.428l3.36 2.316c4-4.202 6.497-10.116 6.441-16.71z" fill="#444444"></path>
</svg>
