<?xml version="1.0" encoding="utf-8"?>
<!-- Generated by IcoMoon.io -->
<!DOCTYPE svg PUBLIC "-//W3C//DTD SVG 1.1//EN" "http://www.w3.org/Graphics/SVG/1.1/DTD/svg11.dtd">
<svg version="1.1" xmlns="http://www.w3.org/2000/svg" xmlns:xlink="http://www.w3.org/1999/xlink" width="85" height="85" viewBox="0 0 85 85">
<path d="M42.5 22.707c-27.128 0-34.261 19.793-34.261 19.793s5.627 19.793 34.563 19.793c26.826 0 33.96-20.195 33.96-20.195s-6.631-19.391-34.261-19.391zM58.676 44.208h-4.923v4.119c0 1.005-0.804 1.708-1.708 1.708s-1.808-0.703-1.808-1.708v-4.119h-6.028v4.119c0 1.005-0.804 1.708-1.708 1.708s-1.708-0.804-1.708-1.708v-4.119h-5.928v4.119c0 1.005-0.804 1.708-1.708 1.708s-1.708-0.804-1.708-1.708v-4.119h-5.024c-1.005 0-1.708-0.804-1.708-1.708s0.804-1.708 1.708-1.708h5.024v-4.119c0-1.005 0.804-1.708 1.708-1.708s1.708 0.804 1.708 1.708v4.119h5.928v-4.119c0-1.005 0.804-1.708 1.708-1.708s1.708 0.804 1.708 1.708v4.119h6.028v-4.119c0-1.005 0.804-1.708 1.708-1.708s1.708 0.804 1.708 1.708v4.119h4.923c1.005 0 1.708 0.804 1.708 1.708s-0.703 1.708-1.608 1.708z" fill="#444444"></path>
</svg>
