<?xml version="1.0" encoding="utf-8"?>
<!-- Generated by IcoMoon.io -->
<!DOCTYPE svg PUBLIC "-//W3C//DTD SVG 1.1//EN" "http://www.w3.org/Graphics/SVG/1.1/DTD/svg11.dtd">
<svg version="1.1" xmlns="http://www.w3.org/2000/svg" xmlns:xlink="http://www.w3.org/1999/xlink" width="85" height="85" viewBox="0 0 85 85">
<path d="M46.619 63.398h-8.138c-1.005 0-1.708 0.804-1.708 1.708 0 1.005 0.804 1.708 1.708 1.708h8.138c1.005 0 1.708-0.804 1.708-1.708s-0.804-1.708-1.708-1.708z" fill="#444444"></path>
<path d="M61.288 63.398h-8.138c-1.005 0-1.708 0.804-1.708 1.708 0 1.005 0.804 1.708 1.708 1.708h8.138c1.005 0 1.708-0.804 1.708-1.708s-0.804-1.708-1.708-1.708z" fill="#444444"></path>
<path d="M31.95 63.398h-8.138c-1.005 0-1.708 0.804-1.708 1.708 0 1.005 0.804 1.708 1.708 1.708h8.138c1.005 0 1.708-0.804 1.708-1.708s-0.804-1.708-1.708-1.708z" fill="#444444"></path>
<path d="M44.007 64.705v-10.349c6.33-0.201 12.358-2.311 12.358-6.129v-24.013c0 0 0 0 0 0s0 0 0 0c0-4.019-6.832-6.129-13.564-6.129s-13.564 2.11-13.564 6.129c0 0 0 0 0 0s0 0 0 0v24.013c0 3.718 5.727 5.727 11.956 6.028v10.349h2.813zM32.151 28.032c2.612 1.507 6.732 2.21 10.751 2.21s8.138-0.804 10.751-2.21v4.119c0 1.206-4.119 3.316-10.751 3.316-6.732 0.1-10.751-2.11-10.751-3.215v-4.22zM32.151 36.070c2.612 1.507 6.732 2.21 10.751 2.21s8.138-0.804 10.751-2.21v4.119c0 1.206-4.119 3.316-10.751 3.316-6.732 0.1-10.751-2.11-10.751-3.215v-4.22zM53.552 24.214c0 1.206-4.119 3.316-10.751 3.316s-10.65-2.11-10.65-3.316c0-1.206 4.119-3.316 10.751-3.316s10.65 2.11 10.65 3.316zM32.151 48.327v-4.119c2.612 1.507 6.732 2.21 10.751 2.21s8.138-0.804 10.751-2.21v4.119c0 1.105-4.019 3.215-10.55 3.316-0.1 0-0.603 0-0.804 0-6.33-0.201-10.148-2.21-10.148-3.316z" fill="#444444"></path>
</svg>
