<?xml version="1.0" encoding="utf-8"?>
<!-- Generated by IcoMoon.io -->
<!DOCTYPE svg PUBLIC "-//W3C//DTD SVG 1.1//EN" "http://www.w3.org/Graphics/SVG/1.1/DTD/svg11.dtd">
<svg version="1.1" xmlns="http://www.w3.org/2000/svg" xmlns:xlink="http://www.w3.org/1999/xlink" width="85" height="85" viewBox="0 0 85 85">
<path d="M66.513 26.223c-0.402-0.703-4.421-6.832-11.655-8.038-0.804-0.1-1.608-0.201-2.411-0.201-4.22 0-8.641 1.808-12.86 5.325-0.1 0.1-0.1 0.1-0.201 0.201l-15.071 14.669c-0.301 0.201-6.33 5.727-6.33 14.066 0 0.804 0.301 3.918 1.206 6.33s2.311 4.823 4.119 7.033c0.603 0.703 1.507 1.206 2.512 1.206h0.1c0.904 0 1.808-0.402 2.411-1.005l11.253-11.655c0.603-0.703 1.005-1.608 0.904-2.512s-0.502-1.808-1.306-2.311c-1.005-0.804-1.909-1.909-2.11-2.512 1.708-1.708 4.823-4.823 9.043-8.741v0c0.1 0 0.301-0.1 0.603-0.1 0.502 0 1.708 0.201 3.617 1.608 0.603 0.402 1.306 0.603 2.009 0.603 0.804 0 1.507-0.301 2.11-0.703l11.353-9.143c1.306-0.904 1.608-2.713 0.703-4.119zM43.404 34.965l-0.301 0.201c-2.512 2.411-6.933 6.732-9.244 9.043-0.703 0.804-1.105 1.708-1.105 2.713 0 2.21 1.808 4.22 2.914 5.325l-9.645 10.047c-1.206-1.608-2.11-3.316-2.813-4.923-0.603-1.909-0.904-4.421-0.904-4.923 0-6.33 4.421-10.449 4.923-10.952l15.071-14.669c3.517-2.914 6.933-4.421 10.148-4.421 0.603 0 1.105 0 1.708 0.1 4.22 0.703 7.134 3.918 8.138 5.325l-10.047 8.138c-2.009-1.306-3.818-2.009-5.627-2.009-1.708-0.1-2.813 0.603-3.215 1.005z" fill="#444444"></path>
</svg>
