<?xml version="1.0" encoding="utf-8"?>
<!-- Generated by IcoMoon.io -->
<!DOCTYPE svg PUBLIC "-//W3C//DTD SVG 1.1//EN" "http://www.w3.org/Graphics/SVG/1.1/DTD/svg11.dtd">
<svg version="1.1" xmlns="http://www.w3.org/2000/svg" xmlns:xlink="http://www.w3.org/1999/xlink" width="85" height="85" viewBox="0 0 85 85">
<path d="M66.312 28.936h-4.923v34.663h4.923c1.105 0 2.009-0.804 2.009-1.808v-31.046c0-1.005-0.904-1.808-2.009-1.808zM16.679 30.745v30.946c0 1.005 0.904 1.808 2.009 1.808h5.225v-34.563h-5.225c-1.105 0-2.009 0.804-2.009 1.808zM50.236 22.807c0-0.703-0.603-1.306-1.407-1.306h-12.86c-0.804 0-1.407 0.603-1.407 1.306v6.129h-5.627v34.663h27.53v-34.663h-6.229v-6.129zM47.423 28.936h-10.047v-4.823h10.148v4.823z" fill="#444444"></path>
</svg>
