<?xml version="1.0" encoding="utf-8"?>
<!-- Generated by IcoMoon.io -->
<!DOCTYPE svg PUBLIC "-//W3C//DTD SVG 1.1//EN" "http://www.w3.org/Graphics/SVG/1.1/DTD/svg11.dtd">
<svg version="1.1" xmlns="http://www.w3.org/2000/svg" xmlns:xlink="http://www.w3.org/1999/xlink" width="85" height="85" viewBox="0 0 85 85">
<path d="M25.922 33.658c0.402 0 0.904 0 1.306 0.1 1.407-4.722 5.827-8.038 10.952-8.038 0.603 0 1.407 0 2.11 0.1 2.914-2.411 5.928-3.617 9.545-3.617 7.636 0 13.865 5.526 15.071 13.162 3.316 2.11 5.526 5.526 5.526 8.942 0 5.928-4.923 10.65-10.952 10.65h-10.349v-3.718h10.449c4.32 0 7.033-3.517 7.033-6.832 0-2.311-1.808-4.722-4.32-6.028l-0.904-0.502-0.1-1.005c-0.703-6.229-5.426-10.751-11.454-10.751-2.914 0-5.225 1.005-7.636 3.215l-0.703 0.703-1.005-0.201c-0.502-0.1-1.608-0.201-2.311-0.201-3.818 0-7.033 2.914-7.535 6.732l-0.301 2.21-2.11-0.603c-0.703-0.201-1.507-0.301-2.311-0.301-4.019 0-7.636 3.215-7.636 6.832s3.517 6.832 7.636 6.832h10.751v3.818h-10.751c-6.229 0-11.454-4.923-11.454-10.65 0-5.928 5.225-10.851 11.454-10.851z" fill="#444444"></path>
<path d="M41.998 36.371l-6.531 9.043c-0.1 0.201-0.201 0.402-0.201 0.603s0 0.301 0.1 0.402c0.201 0.301 0.502 0.502 0.904 0.502h4.22v13.564c0 1.306 1.005 2.311 2.311 2.311 1.206 0 2.311-1.005 2.311-2.311v-13.463h4.22c0.402 0 0.703-0.201 0.904-0.502s0.1-0.703-0.1-1.005l-6.531-9.043c-0.201-0.301-0.502-0.402-0.804-0.402-0.301-0.1-0.603 0.1-0.804 0.301z" fill="#444444"></path>
</svg>
