<?xml version="1.0" encoding="utf-8"?>
<!-- Generated by IcoMoon.io -->
<!DOCTYPE svg PUBLIC "-//W3C//DTD SVG 1.1//EN" "http://www.w3.org/Graphics/SVG/1.1/DTD/svg11.dtd">
<svg version="1.1" xmlns="http://www.w3.org/2000/svg" xmlns:xlink="http://www.w3.org/1999/xlink" width="85" height="85" viewBox="0 0 85 85">
<path d="M49.031 23.109l-5.024-6.933c-0.201-0.301-0.502-0.402-0.804-0.402 0 0 0 0 0 0-0.301 0-0.603 0.201-0.804 0.402l-5.225 6.933c-0.201 0.301-0.301 0.703-0.1 1.105 0.201 0.301 0.502 0.603 0.904 0.603h2.311v41.696c0 1.507 1.206 2.813 2.813 2.813 1.507 0 2.813-1.206 2.813-2.813v-41.696h2.311c0 0 0 0 0 0s0 0 0 0c0.603 0 1.005-0.502 1.005-1.005 0.1-0.301 0-0.502-0.201-0.703z" fill="#444444"></path>
<path d="M35.567 52.849l-7.334-8.44 1.507-1.708c0.301-0.301 0.301-0.703 0.201-1.105s-0.502-0.603-0.904-0.603l-8.641-0.703c-0.301 0-0.703 0.1-0.904 0.402s-0.301 0.603-0.201 0.904l2.009 8.44c0.1 0.402 0.402 0.703 0.804 0.804 0.1 0 0.201 0 0.201 0 0.301 0 0.603-0.1 0.804-0.402l1.507-1.708 6.129 7.033v10.751c0 1.507 1.206 2.813 2.813 2.813 1.507 0 2.813-1.206 2.813-2.813v-11.856c-0.201-0.603-0.402-1.306-0.804-1.808z" fill="#444444"></path>
<path d="M65.709 35.668l-1.306-8.44c-0.1-0.301-0.301-0.603-0.603-0.804s-0.603-0.1-0.904 0l-7.736 3.918c-0.301 0.201-0.603 0.502-0.603 0.904s0.201 0.703 0.603 0.904l1.808 0.904-6.531 10.65c-0.301 0.402-0.402 0.904-0.402 1.407v21.2c0 1.507 1.206 2.813 2.813 2.813 1.507 0 2.813-1.206 2.813-2.813v-20.396l6.33-10.349 2.311 1.206c0.201 0.1 0.301 0.1 0.502 0.1 0 0 0 0 0 0 0.603 0 1.005-0.502 1.005-1.005 0 0.1 0-0.1-0.1-0.201z" fill="#444444"></path>
</svg>
