<?xml version="1.0" encoding="utf-8"?>
<!-- Generated by IcoMoon.io -->
<!DOCTYPE svg PUBLIC "-//W3C//DTD SVG 1.1//EN" "http://www.w3.org/Graphics/SVG/1.1/DTD/svg11.dtd">
<svg version="1.1" xmlns="http://www.w3.org/2000/svg" xmlns:xlink="http://www.w3.org/1999/xlink" width="85" height="85" viewBox="0 0 85 85">
<path d="M35.166 67.819c-0.1 0-0.201 0-0.301 0-2.512-0.201-4.823-0.804-6.832-1.808s-4.119-2.612-4.622-3.215c-5.124-5.124-4.722-12.157-4.722-12.459l0.201-17.784c0-0.1 0-0.201 0-0.301 0.502-5.727 2.612-9.846 6.129-12.459 3.014-2.11 6.229-2.612 8.54-2.612 1.808 0 3.115 0.301 3.517 0.402 1.507 0.402 2.411 1.808 2.311 3.215l-1.306 12.358c-0.1 1.407-1.306 2.512-2.612 2.713-1.909 0.301-2.713 0.804-3.014 1.105-0.1 0.1-0.201 0.201-0.201 0.301v0c-0.1 4.722-0.1 8.44-0.1 10.449 0.301 0.1 0.904 0.201 1.708 0.201 0.301 0 0.603 0 0.804 0 0.1 0 0.301 0 0.402 0 0.703 0 1.407 0.301 2.009 0.703 0.603 0.603 1.005 1.407 1.005 2.21l0.1 13.865c0 0.804-0.301 1.608-0.904 2.21l-0.1 0.1c-0.502 0.502-1.206 0.804-2.009 0.804zM33.558 21.401c-1.608 0-4.019 0.301-6.129 1.808-0.402 0.301-0.703 0.603-1.105 0.904-1.909 1.909-3.014 4.823-3.416 8.641l-0.201 17.884c0 0.301-0.301 5.627 3.517 9.344 0.201 0.201 1.909 1.608 3.517 2.311 1.206 0.603 2.713 1.005 4.22 1.206l-0.201-11.353c0 0-0.1 0-0.1 0-1.507 0-3.517-0.301-4.722-1.507-0.603-0.603-1.005-1.507-1.005-2.512 0-2.813 0.1-8.038 0.1-10.952v-0.301c0-0.502 0.301-1.708 1.407-2.813s2.612-1.808 4.521-2.21l1.206-10.349c-0.402-0.1-1.005-0.1-1.608-0.1z" fill="#444444"></path>
<path d="M57.672 43.412c-0.025-5.047-1.983-9.502-4.985-12.217l-3.477 2.332c2.672 1.95 4.544 5.683 4.577 9.939 0.040 3.966-1.466 7.463-3.773 9.533l3.36 2.316c2.592-2.772 4.316-7.066 4.297-11.903z" fill="#444444"></path>
<path d="M48.889 43.1c-0.056-2.885-1.119-5.481-2.872-7.443l-2.956 1.961c1.288 1.509 2.088 3.436 2.071 5.517-0.003 2-0.642 3.809-1.725 5.294l2.915 1.991c1.584-1.984 2.555-4.529 2.567-7.319z" fill="#444444"></path>
<path d="M66.36 43.292c-0.090-6.641-2.674-12.578-6.828-16.612l-3.287 2.197c3.542 2.972 5.931 8.334 5.954 14.381 0.071 6.013-2.202 11.34-5.64 14.428l3.36 2.316c4-4.202 6.497-10.116 6.441-16.71z" fill="#444444"></path>
</svg>
