<?xml version="1.0" encoding="utf-8"?>
<!-- Generated by IcoMoon.io -->
<!DOCTYPE svg PUBLIC "-//W3C//DTD SVG 1.1//EN" "http://www.w3.org/Graphics/SVG/1.1/DTD/svg11.dtd">
<svg version="1.1" xmlns="http://www.w3.org/2000/svg" xmlns:xlink="http://www.w3.org/1999/xlink" width="85" height="85" viewBox="0 0 85 85">
<path d="M17.482 67.116h50.136c0.703 0 1.407-0.301 1.909-0.804s0.804-1.206 0.804-1.909v-14.669c0-0.703-0.301-1.407-0.804-1.909s-1.206-0.804-1.909-0.804h-50.136c-0.703 0-1.407 0.301-1.909 0.804s-0.804 1.206-0.804 1.909v14.769c0 0.703 0.301 1.407 0.804 1.909 0.502 0.402 1.206 0.703 1.909 0.703zM19.090 51.342h46.82v11.454h-46.82v-11.454z" fill="#444444"></path>
<path d="M42.628 26.584c-5.047 0.025-9.469 2.031-12.217 4.985l2.332 3.477c1.95-2.672 5.683-4.544 9.939-4.577 3.966-0.040 7.463 1.466 9.533 3.773l2.316-3.36c-2.806-2.64-7.1-4.363-11.903-4.297z" fill="#444444"></path>
<path d="M42.316 35.366c-2.885 0.056-5.481 1.119-7.443 2.872l1.961 2.956c1.509-1.288 3.436-2.088 5.517-2.071 2 0.003 3.809 0.642 5.294 1.725l1.991-2.915c-1.984-1.584-4.529-2.555-7.319-2.567z" fill="#444444"></path>
<path d="M42.508 17.895c-6.641 0.090-12.578 2.674-16.612 6.828l2.197 3.287c2.972-3.542 8.334-5.931 14.381-5.954 6.013-0.071 11.34 2.202 14.428 5.64l2.316-3.36c-4.236-4.048-10.15-6.544-16.71-6.441z" fill="#444444"></path>
<path d="M27.429 57.269c0 1.443-1.17 2.612-2.612 2.612s-2.612-1.17-2.612-2.612c0-1.443 1.17-2.612 2.612-2.612s2.612 1.17 2.612 2.612z" fill="#444444"></path>
</svg>
