<?xml version="1.0" encoding="utf-8"?>
<!-- Generated by IcoMoon.io -->
<!DOCTYPE svg PUBLIC "-//W3C//DTD SVG 1.1//EN" "http://www.w3.org/Graphics/SVG/1.1/DTD/svg11.dtd">
<svg version="1.1" xmlns="http://www.w3.org/2000/svg" xmlns:xlink="http://www.w3.org/1999/xlink" width="85" height="85" viewBox="0 0 85 85">
<path d="M64.705 58.274h-26.123c-1.005 0-1.808 0.804-1.808 1.808s0.804 1.808 1.808 1.808h26.123c1.005 0 1.808-0.804 1.808-1.808s-0.804-1.808-1.808-1.808z" fill="#444444"></path>
<path d="M64.705 40.692h-26.123c-1.005 0-1.808 0.804-1.808 1.808s0.804 1.808 1.808 1.808h26.123c1.005 0 1.808-0.804 1.808-1.808s-0.804-1.808-1.808-1.808z" fill="#444444"></path>
<path d="M38.582 26.826h26.123c1.005 0 1.808-0.804 1.808-1.808s-0.804-1.808-1.808-1.808h-26.123c-1.005 0-1.808 0.804-1.808 1.808s0.804 1.808 1.808 1.808z" fill="#444444"></path>
<path d="M31.046 17.784h-10.751c-1.005 0-1.808 0.804-1.808 1.808v10.751c0 1.005 0.804 1.808 1.808 1.808h10.751c1.005 0 1.808-0.804 1.808-1.808v-10.751c0-1.005-0.804-1.808-1.808-1.808zM29.238 28.534h-7.134v-7.134h7.134v7.134z" fill="#444444"></path>
<path d="M31.046 35.366h-10.751c-1.005 0-1.808 0.804-1.808 1.808v10.751c0 1.005 0.804 1.808 1.808 1.808h10.751c1.005 0 1.808-0.804 1.808-1.808v-10.851c0-0.904-0.804-1.708-1.808-1.708zM29.238 46.117h-7.134v-7.134h7.134v7.134z" fill="#444444"></path>
<path d="M31.046 52.849h-10.751c-1.005 0-1.808 0.804-1.808 1.808v10.751c0 1.005 0.804 1.808 1.808 1.808h10.751c1.005 0 1.808-0.804 1.808-1.808v-10.751c0-1.005-0.804-1.808-1.808-1.808zM29.238 63.599h-7.134v-7.134h7.134v7.134z" fill="#444444"></path>
</svg>
